<svg width="41" height="40" viewBox="0 0 41 40" xmlns="http://www.w3.org/2000/svg">
    <style>
        .camera-icon{ fill: #fff;}
    </style>
    <g clip-path="url(#2lkak6b1ga)" class="camera-icon" >
        <path d="M36.786 10.129a.828.828 0 0 0-.802 0l-6.954 3.51v-1.105a2.524 2.524 0 0 0-2.524-2.524H6.788a2.524 2.524 0 0 0-2.577 2.524v15.091a2.524 2.524 0 0 0 2.524 2.524h19.718a2.524 2.524 0 0 0 2.524-2.524v-1.078l6.954 3.51c.113.063.24.095.368.092a.815.815 0 0 0 .828-.828V10.878a.867.867 0 0 0-.341-.75zm-9.4 4.81v12.686a.882.882 0 0 1-.88.881H6.788a.88.88 0 0 1-.881-.88V12.533a.88.88 0 0 1 .88-.88h19.719a.88.88 0 0 1 .88.88v2.406zm8.15 13.028-6.506-3.286v-9.202l6.507-3.286v15.774z"/>
        <path d="M13.15 12.521H7.892a.828.828 0 1 0 0 1.643h5.258a.827.827 0 0 0 .652-1.442.829.829 0 0 0-.652-.2zM16.49 12.521h-1.223a.828.828 0 1 0 0 1.643h1.222a.828.828 0 0 0 0-1.643z"/>
    </g>
    <defs>
        <clipPath id="2lkak6b1ga">
            <path fill="#fff" transform="translate(.977 .362)" d="M0 0h39.437v39.437H0z"/>
        </clipPath>
    </defs>
</svg>
