<svg width="35" height="35" viewBox="0 0 35 35" fill="none" xmlns="http://www.w3.org/2000/svg">
    <path d="M30.59 17.96h-4.25a2.125 2.125 0 0 0-2.124 2.126v5.312a2.125 2.125 0 0 0 2.125 2.125h2.125a2.125 2.125 0 0 0 2.125-2.125v-7.437zm0 0A12.75 12.75 0 0 0 17.745 5.212a12.75 12.75 0 0 0-12.847 12.75v7.437a2.125 2.125 0 0 0 2.125 2.125h2.125a2.125 2.125 0 0 0 2.125-2.125v-5.312a2.125 2.125 0 0 0-2.125-2.125h-4.25" stroke="#000" stroke-width="1.5" stroke-linecap="round" stroke-linejoin="round"/>
    <path d="M30.59 25.398v3.188a4.25 4.25 0 0 1-4.25 4.25h-7.63" stroke="#000" stroke-width="1.5" stroke-linecap="round" stroke-linejoin="round"/>
</svg>
