<svg width="40" height="40" viewBox="0 0 40 40" fill="none" xmlns="http://www.w3.org/2000/svg">
    <style>
        .mike-icon{ fill: #333;}
    </style>
    <g class="mike-icon" clip-path="url(#38773ikp7a)" fill="#333">
        <path d="M20.153 26.654h.23a7.797 7.797 0 0 0 7.789-7.78v-7.23a7.797 7.797 0 0 0-7.789-7.79h-.23a7.797 7.797 0 0 0-7.789 7.79v7.262a7.796 7.796 0 0 0 7.789 7.748zm-6.146-15.01a6.154 6.154 0 0 1 6.146-6.146h.23a6.154 6.154 0 0 1 6.146 6.145v7.263a6.154 6.154 0 0 1-6.146 6.105h-.23a6.154 6.154 0 0 1-6.146-6.138v-7.23z"/>
        <path d="M21.09 30.137c5.75-.37 10.228-4.585 10.228-9.72a.822.822 0 1 0-1.643 0c0 4.47-4.223 8.118-9.407 8.118s-9.407-3.648-9.407-8.118a.822.822 0 1 0-1.643 0c0 5.135 4.518 9.35 10.228 9.72v4.354a1.275 1.275 0 0 0 0 .173h-5.299a.822.822 0 1 0 0 1.643H26.39a.821.821 0 1 0 0-1.643h-5.3a1.275 1.275 0 0 0 0-.173v-4.354z"/>
    </g>
    <defs>
        <clipPath id="38773ikp7a">
            <path fill="#fff" transform="translate(.55 .362)" d="M0 0h39.437v39.437H0z"/>
        </clipPath>
    </defs>
</svg>
