<svg width="40" height="40" viewBox="0 0 40 40" fill="none" xmlns="http://www.w3.org/2000/svg">
    <style>
        .sound-icon{ fill: #fff;}
    </style>
    <g class="sound-icon" clip-path="url(#7a2usfrnsa)" fill="#fff">
        <path d="M23.488 7.568a2.588 2.588 0 0 0-2.653.073l-9.449 5.973-.065.058H5.118a1.643 1.643 0 0 0-1.644 1.643v9.563a1.643 1.643 0 0 0 1.644 1.644h6.203l.065.057 9.449 5.973c.417.266.901.408 1.396.411a2.645 2.645 0 0 0 2.613-2.62V9.851a2.563 2.563 0 0 0-1.356-2.284zm-18.255 7.83h5.75v9.366h-5.75v-9.367zm17.894 14.911a.821.821 0 0 1-.452.764.822.822 0 0 1-.887 0l-9.038-5.75c.045-.15.07-.305.074-.46v-9.58a1.686 1.686 0 0 0-.074-.46l9.038-5.752a.822.822 0 0 1 .887 0 .822.822 0 0 1 .452.764V30.31zM32.986 12.39a1.126 1.126 0 0 0-.772-.312 1.085 1.085 0 0 0-.764 1.857 8.717 8.717 0 0 1 0 12.324 1.067 1.067 0 0 0 0 1.528 1.075 1.075 0 0 0 .764.32c.288-.001.564-.113.772-.312a10.886 10.886 0 0 0 0-15.38v-.025zM29.158 16.236c-.1-.1-.221-.18-.354-.23a.995.995 0 0 0-.821 0 1.01 1.01 0 0 0-.354.23c-.098.103-.179.223-.238.353a1.093 1.093 0 0 0 0 .822c.057.131.138.25.238.353a3.286 3.286 0 0 1 0 4.617 1.075 1.075 0 0 0-.32.764 1.093 1.093 0 0 0 1.089 1.092 1.086 1.086 0 0 0 .768-.32c.502-.507.9-1.107 1.175-1.766a5.365 5.365 0 0 0 0-4.157 5.538 5.538 0 0 0-1.183-1.758z"/>
    </g>
    <defs>
        <clipPath id="7a2usfrnsa">
            <path fill="#fff" transform="translate(.122 .362)" d="M0 0h39.437v39.437H0z"/>
        </clipPath>
    </defs>
</svg>
